{
    "asset" : {
        "generator" : "Khronos glTF Blender I/O v1.8.19",
        "version" : "2.0"
    },
    "scene" : 0,
    "scenes" : [
        {
            "name" : "Scene",
            "nodes" : [
                0
            ]
        }
    ],
    "nodes" : [
        {
            "mesh" : 0,
            "name" : "Road-straight",
            "scale" : [
                1,
                1,
                20.633399963378906
            ]
        }
    ],
    "animations" : [
        {
            "channels" : [
                {
                    "sampler" : 0,
                    "target" : {
                        "node" : 0,
                        "path" : "translation"
                    }
                },
                {
                    "sampler" : 1,
                    "target" : {
                        "node" : 0,
                        "path" : "rotation"
                    }
                },
                {
                    "sampler" : 2,
                    "target" : {
                        "node" : 0,
                        "path" : "scale"
                    }
                }
            ],
            "name" : "Road-straightAction",
            "samplers" : [
                {
                    "input" : 16,
                    "interpolation" : "LINEAR",
                    "output" : 17
                },
                {
                    "input" : 18,
                    "interpolation" : "STEP",
                    "output" : 19
                },
                {
                    "input" : 18,
                    "interpolation" : "STEP",
                    "output" : 20
                }
            ]
        }
    ],
    "materials" : [
        {
            "doubleSided" : true,
            "name" : "Road-black",
            "pbrMetallicRoughness" : {
                "baseColorFactor" : [
                    0.015324357897043228,
                    0.015324357897043228,
                    0.015324357897043228,
                    1
                ],
                "metallicFactor" : 0
            }
        },
        {
            "doubleSided" : true,
            "name" : "Road-white",
            "pbrMetallicRoughness" : {
                "baseColorFactor" : [
                    0.800000011920929,
                    0.800000011920929,
                    0.800000011920929,
                    1
                ],
                "metallicFactor" : 0
            }
        },
        {
            "doubleSided" : true,
            "name" : "Leaf",
            "pbrMetallicRoughness" : {
                "baseColorFactor" : [
                    0.7373382449150085,
                    0.8000000715255737,
                    0.05293722078204155,
                    1
                ],
                "metallicFactor" : 0,
                "roughnessFactor" : 0.7035398483276367
            }
        },
        {
            "doubleSided" : true,
            "name" : "Tree Material",
            "pbrMetallicRoughness" : {
                "baseColorTexture" : {
                    "index" : 0
                },
                "metallicFactor" : 0
            }
        }
    ],
    "meshes" : [
        {
            "name" : "Plane.002",
            "primitives" : [
                {
                    "attributes" : {
                        "POSITION" : 0,
                        "NORMAL" : 1,
                        "TEXCOORD_0" : 2
                    },
                    "indices" : 3,
                    "material" : 0
                },
                {
                    "attributes" : {
                        "POSITION" : 4,
                        "NORMAL" : 5,
                        "TEXCOORD_0" : 6
                    },
                    "indices" : 7,
                    "material" : 1
                },
                {
                    "attributes" : {
                        "POSITION" : 8,
                        "NORMAL" : 9,
                        "TEXCOORD_0" : 10
                    },
                    "indices" : 11,
                    "material" : 2
                },
                {
                    "attributes" : {
                        "POSITION" : 12,
                        "NORMAL" : 13,
                        "TEXCOORD_0" : 14
                    },
                    "indices" : 15,
                    "material" : 3
                }
            ]
        }
    ],
    "textures" : [
        {
            "sampler" : 0,
            "source" : 0
        }
    ],
    "images" : [
        {
            "bufferView" : 16,
            "mimeType" : "image/png",
            "name" : "Tree Textures"
        }
    ],
    "accessors" : [
        {
            "bufferView" : 0,
            "componentType" : 5126,
            "count" : 12,
            "max" : [
                8,
                0.05000000447034836,
                29.867172241210938
            ],
            "min" : [
                -8,
                0.05000000447034836,
                -9.972203254699707
            ],
            "type" : "VEC3"
        },
        {
            "bufferView" : 1,
            "componentType" : 5126,
            "count" : 12,
            "type" : "VEC3"
        },
        {
            "bufferView" : 2,
            "componentType" : 5126,
            "count" : 12,
            "type" : "VEC2"
        },
        {
            "bufferView" : 3,
            "componentType" : 5123,
            "count" : 24,
            "type" : "SCALAR"
        },
        {
            "bufferView" : 4,
            "componentType" : 5126,
            "count" : 32,
            "max" : [
                10,
                0.05000000447034836,
                29.867172241210938
            ],
            "min" : [
                -10,
                0,
                -9.972203254699707
            ],
            "type" : "VEC3"
        },
        {
            "bufferView" : 5,
            "componentType" : 5126,
            "count" : 32,
            "type" : "VEC3"
        },
        {
            "bufferView" : 6,
            "componentType" : 5126,
            "count" : 32,
            "type" : "VEC2"
        },
        {
            "bufferView" : 7,
            "componentType" : 5123,
            "count" : 48,
            "type" : "SCALAR"
        },
        {
            "bufferView" : 8,
            "componentType" : 5126,
            "count" : 16,
            "max" : [
                235.90003967285156,
                0,
                29.889745712280273
            ],
            "min" : [
                -235.90003967285156,
                0,
                -9.994684219360352
            ],
            "type" : "VEC3"
        },
        {
            "bufferView" : 9,
            "componentType" : 5126,
            "count" : 16,
            "type" : "VEC3"
        },
        {
            "bufferView" : 10,
            "componentType" : 5126,
            "count" : 16,
            "type" : "VEC2"
        },
        {
            "bufferView" : 11,
            "componentType" : 5123,
            "count" : 24,
            "type" : "SCALAR"
        },
        {
            "bufferView" : 12,
            "componentType" : 5126,
            "count" : 57468,
            "max" : [
                341.2862548828125,
                77.71247100830078,
                29.543161392211914
            ],
            "min" : [
                -341.2862548828125,
                -9.5367431640625e-07,
                -8.577128410339355
            ],
            "type" : "VEC3"
        },
        {
            "bufferView" : 13,
            "componentType" : 5126,
            "count" : 57468,
            "type" : "VEC3"
        },
        {
            "bufferView" : 14,
            "componentType" : 5126,
            "count" : 57468,
            "type" : "VEC2"
        },
        {
            "bufferView" : 15,
            "componentType" : 5123,
            "count" : 208836,
            "type" : "SCALAR"
        },
        {
            "bufferView" : 17,
            "componentType" : 5126,
            "count" : 24,
            "max" : [
                1
            ],
            "min" : [
                0.041666666666666664
            ],
            "type" : "SCALAR"
        },
        {
            "bufferView" : 18,
            "componentType" : 5126,
            "count" : 24,
            "type" : "VEC3"
        },
        {
            "bufferView" : 19,
            "componentType" : 5126,
            "count" : 1,
            "max" : [
                1
            ],
            "min" : [
                1
            ],
            "type" : "SCALAR"
        },
        {
            "bufferView" : 20,
            "componentType" : 5126,
            "count" : 1,
            "type" : "VEC4"
        },
        {
            "bufferView" : 21,
            "componentType" : 5126,
            "count" : 1,
            "type" : "VEC3"
        }
    ],
    "bufferViews" : [
        {
            "buffer" : 0,
            "byteLength" : 144,
            "byteOffset" : 0
        },
        {
            "buffer" : 0,
            "byteLength" : 144,
            "byteOffset" : 144
        },
        {
            "buffer" : 0,
            "byteLength" : 96,
            "byteOffset" : 288
        },
        {
            "buffer" : 0,
            "byteLength" : 48,
            "byteOffset" : 384
        },
        {
            "buffer" : 0,
            "byteLength" : 384,
            "byteOffset" : 432
        },
        {
            "buffer" : 0,
            "byteLength" : 384,
            "byteOffset" : 816
        },
        {
            "buffer" : 0,
            "byteLength" : 256,
            "byteOffset" : 1200
        },
        {
            "buffer" : 0,
            "byteLength" : 96,
            "byteOffset" : 1456
        },
        {
            "buffer" : 0,
            "byteLength" : 192,
            "byteOffset" : 1552
        },
        {
            "buffer" : 0,
            "byteLength" : 192,
            "byteOffset" : 1744
        },
        {
            "buffer" : 0,
            "byteLength" : 128,
            "byteOffset" : 1936
        },
        {
            "buffer" : 0,
            "byteLength" : 48,
            "byteOffset" : 2064
        },
        {
            "buffer" : 0,
            "byteLength" : 689616,
            "byteOffset" : 2112
        },
        {
            "buffer" : 0,
            "byteLength" : 689616,
            "byteOffset" : 691728
        },
        {
            "buffer" : 0,
            "byteLength" : 459744,
            "byteOffset" : 1381344
        },
        {
            "buffer" : 0,
            "byteLength" : 417672,
            "byteOffset" : 1841088
        },
        {
            "buffer" : 0,
            "byteLength" : 37143,
            "byteOffset" : 2258760
        },
        {
            "buffer" : 0,
            "byteLength" : 96,
            "byteOffset" : 2295904
        },
        {
            "buffer" : 0,
            "byteLength" : 288,
            "byteOffset" : 2296000
        },
        {
            "buffer" : 0,
            "byteLength" : 4,
            "byteOffset" : 2296288
        },
        {
            "buffer" : 0,
            "byteLength" : 16,
            "byteOffset" : 2296292
        },
        {
            "buffer" : 0,
            "byteLength" : 12,
            "byteOffset" : 2296308
        }
    ],
    "samplers" : [
        {
            "magFilter" : 9729,
            "minFilter" : 9987
        }
    ],
    "buffers" : [
        {
            "byteLength" : 2296320,
            "uri" : "data:application/octet-stream;base64,"
        }
    ]
}
