{
    "asset" : {
        "generator" : "Khronos glTF Blender I/O v1.8.19",
        "version" : "2.0"
    },
    "scene" : 0,
    "scenes" : [
        {
            "name" : "Scene",
            "nodes" : [
                0
            ]
        }
    ],
    "nodes" : [
        {
            "mesh" : 0,
            "name" : "Van-final",
            "rotation" : [
                0,
                0.7071068286895752,
                0,
                0.7071068286895752
            ]
        }
    ],
    "materials" : [
        {
            "doubleSided" : true,
            "name" : "Van-primary",
            "pbrMetallicRoughness" : {
                "baseColorFactor" : [
                    0.9330989718437195,
                    0.5360164046287537,
                    0.32500988245010376,
                    1
                ],
                "metallicFactor" : 0,
                "roughnessFactor" : 0.4000000059604645
            }
        },
        {
            "doubleSided" : true,
            "name" : "Van-secondary",
            "pbrMetallicRoughness" : {
                "baseColorFactor" : [
                    0.8000000715255737,
                    0.07727843523025513,
                    0.08330615609884262,
                    1
                ],
                "metallicFactor" : 0,
                "roughnessFactor" : 0.5
            }
        },
        {
            "doubleSided" : true,
            "name" : "Van-window",
            "pbrMetallicRoughness" : {
                "baseColorFactor" : [
                    0.02145371586084366,
                    0.1617196798324585,
                    0.21712324023246765,
                    1
                ],
                "metallicFactor" : 0,
                "roughnessFactor" : 0.5
            }
        },
        {
            "doubleSided" : true,
            "name" : "Handle",
            "pbrMetallicRoughness" : {
                "baseColorFactor" : [
                    0.006774897687137127,
                    0.006774897687137127,
                    0.006774897687137127,
                    1
                ],
                "metallicFactor" : 0,
                "roughnessFactor" : 0.5
            }
        },
        {
            "doubleSided" : true,
            "name" : "Van-light",
            "pbrMetallicRoughness" : {
                "baseColorFactor" : [
                    0.9652588367462158,
                    1,
                    0.8489109873771667,
                    1
                ],
                "metallicFactor" : 0,
                "roughnessFactor" : 0.5
            }
        },
        {
            "doubleSided" : true,
            "name" : "Van-third",
            "pbrMetallicRoughness" : {
                "baseColorFactor" : [
                    1,
                    0.9551047086715698,
                    0.9551047086715698,
                    1
                ],
                "metallicFactor" : 0,
                "roughnessFactor" : 0.5
            }
        },
        {
            "doubleSided" : true,
            "name" : "Black",
            "pbrMetallicRoughness" : {
                "baseColorFactor" : [
                    0.011644495651125908,
                    0.011644495651125908,
                    0.011644495651125908,
                    1
                ],
                "metallicFactor" : 0
            }
        },
        {
            "doubleSided" : true,
            "name" : "Thrid Color",
            "pbrMetallicRoughness" : {
                "baseColorFactor" : [
                    0.800000011920929,
                    0.800000011920929,
                    0.800000011920929,
                    1
                ],
                "metallicFactor" : 0
            }
        }
    ],
    "meshes" : [
        {
            "name" : "Cube.001",
            "primitives" : [
                {
                    "attributes" : {
                        "POSITION" : 0,
                        "NORMAL" : 1,
                        "TEXCOORD_0" : 2
                    },
                    "indices" : 3,
                    "material" : 0
                },
                {
                    "attributes" : {
                        "POSITION" : 4,
                        "NORMAL" : 5,
                        "TEXCOORD_0" : 6
                    },
                    "indices" : 7,
                    "material" : 1
                },
                {
                    "attributes" : {
                        "POSITION" : 8,
                        "NORMAL" : 9,
                        "TEXCOORD_0" : 10
                    },
                    "indices" : 11,
                    "material" : 2
                },
                {
                    "attributes" : {
                        "POSITION" : 12,
                        "NORMAL" : 13,
                        "TEXCOORD_0" : 14
                    },
                    "indices" : 15,
                    "material" : 3
                },
                {
                    "attributes" : {
                        "POSITION" : 16,
                        "NORMAL" : 17,
                        "TEXCOORD_0" : 18
                    },
                    "indices" : 19,
                    "material" : 4
                },
                {
                    "attributes" : {
                        "POSITION" : 20,
                        "NORMAL" : 21,
                        "TEXCOORD_0" : 22
                    },
                    "indices" : 23,
                    "material" : 5
                },
                {
                    "attributes" : {
                        "POSITION" : 24,
                        "NORMAL" : 25,
                        "TEXCOORD_0" : 26
                    },
                    "indices" : 27,
                    "material" : 6
                },
                {
                    "attributes" : {
                        "POSITION" : 28,
                        "NORMAL" : 29,
                        "TEXCOORD_0" : 30
                    },
                    "indices" : 31,
                    "material" : 7
                }
            ]
        }
    ],
    "accessors" : [
        {
            "bufferView" : 0,
            "componentType" : 5126,
            "count" : 1498,
            "max" : [
                2.105830669403076,
                2.0708670616149902,
                1.0439276695251465
            ],
            "min" : [
                -2.1025681495666504,
                0.07086718082427979,
                -1.0439276695251465
            ],
            "type" : "VEC3"
        },
        {
            "bufferView" : 1,
            "componentType" : 5126,
            "count" : 1498,
            "type" : "VEC3"
        },
        {
            "bufferView" : 2,
            "componentType" : 5126,
            "count" : 1498,
            "type" : "VEC2"
        },
        {
            "bufferView" : 3,
            "componentType" : 5123,
            "count" : 2274,
            "type" : "SCALAR"
        },
        {
            "bufferView" : 4,
            "componentType" : 5126,
            "count" : 558,
            "max" : [
                2.089940309524536,
                0.9253429174423218,
                1.020264744758606
            ],
            "min" : [
                -2.0946767330169678,
                0.07086718082427979,
                -1.020264744758606
            ],
            "type" : "VEC3"
        },
        {
            "bufferView" : 5,
            "componentType" : 5126,
            "count" : 558,
            "type" : "VEC3"
        },
        {
            "bufferView" : 6,
            "componentType" : 5126,
            "count" : 558,
            "type" : "VEC2"
        },
        {
            "bufferView" : 7,
            "componentType" : 5123,
            "count" : 966,
            "type" : "SCALAR"
        },
        {
            "bufferView" : 8,
            "componentType" : 5126,
            "count" : 64,
            "max" : [
                2.04966139793396,
                1.9529281854629517,
                0.9676578640937805
            ],
            "min" : [
                -2.022243022918701,
                1.188806176185608,
                -0.9676578640937805
            ],
            "type" : "VEC3"
        },
        {
            "bufferView" : 9,
            "componentType" : 5126,
            "count" : 64,
            "type" : "VEC3"
        },
        {
            "bufferView" : 10,
            "componentType" : 5126,
            "count" : 64,
            "type" : "VEC2"
        },
        {
            "bufferView" : 11,
            "componentType" : 5123,
            "count" : 96,
            "type" : "SCALAR"
        },
        {
            "bufferView" : 12,
            "componentType" : 5126,
            "count" : 40,
            "max" : [
                1.170251727104187,
                0.8726056814193726,
                1.0420544147491455
            ],
            "min" : [
                1.0223954916000366,
                0.8151920437812805,
                -1.0420544147491455
            ],
            "type" : "VEC3"
        },
        {
            "bufferView" : 13,
            "componentType" : 5126,
            "count" : 40,
            "type" : "VEC3"
        },
        {
            "bufferView" : 14,
            "componentType" : 5126,
            "count" : 40,
            "type" : "VEC2"
        },
        {
            "bufferView" : 15,
            "componentType" : 5123,
            "count" : 60,
            "type" : "SCALAR"
        },
        {
            "bufferView" : 16,
            "componentType" : 5126,
            "count" : 72,
            "max" : [
                2.10243558883667,
                0.5258371829986572,
                0.8860929012298584
            ],
            "min" : [
                1.9749069213867188,
                0.37593770027160645,
                -0.8860929012298584
            ],
            "type" : "VEC3"
        },
        {
            "bufferView" : 17,
            "componentType" : 5126,
            "count" : 72,
            "type" : "VEC3"
        },
        {
            "bufferView" : 18,
            "componentType" : 5126,
            "count" : 72,
            "type" : "VEC2"
        },
        {
            "bufferView" : 19,
            "componentType" : 5123,
            "count" : 108,
            "type" : "SCALAR"
        },
        {
            "bufferView" : 20,
            "componentType" : 5126,
            "count" : 250,
            "max" : [
                2.1139676570892334,
                1.0708671808242798,
                1.0236061811447144
            ],
            "min" : [
                -2.1025681495666504,
                0.5903863906860352,
                -1.0236061811447144
            ],
            "type" : "VEC3"
        },
        {
            "bufferView" : 21,
            "componentType" : 5126,
            "count" : 250,
            "type" : "VEC3"
        },
        {
            "bufferView" : 22,
            "componentType" : 5126,
            "count" : 250,
            "type" : "VEC2"
        },
        {
            "bufferView" : 23,
            "componentType" : 5123,
            "count" : 396,
            "type" : "SCALAR"
        },
        {
            "bufferView" : 24,
            "componentType" : 5126,
            "count" : 1545,
            "max" : [
                2.1320278644561768,
                0.599477231502533,
                1.0136958360671997
            ],
            "min" : [
                -1.7770380973815918,
                0.006011649966239929,
                -1.01901113986969
            ],
            "type" : "VEC3"
        },
        {
            "bufferView" : 25,
            "componentType" : 5126,
            "count" : 1545,
            "type" : "VEC3"
        },
        {
            "bufferView" : 26,
            "componentType" : 5126,
            "count" : 1545,
            "type" : "VEC2"
        },
        {
            "bufferView" : 27,
            "componentType" : 5123,
            "count" : 5760,
            "type" : "SCALAR"
        },
        {
            "bufferView" : 28,
            "componentType" : 5126,
            "count" : 480,
            "max" : [
                2.1302099227905273,
                0.47843021154403687,
                1.0120521783828735
            ],
            "min" : [
                -1.667595386505127,
                0.11545431613922119,
                -1.0173674821853638
            ],
            "type" : "VEC3"
        },
        {
            "bufferView" : 29,
            "componentType" : 5126,
            "count" : 480,
            "type" : "VEC3"
        },
        {
            "bufferView" : 30,
            "componentType" : 5126,
            "count" : 480,
            "type" : "VEC2"
        },
        {
            "bufferView" : 31,
            "componentType" : 5123,
            "count" : 2100,
            "type" : "SCALAR"
        }
    ],
    "bufferViews" : [
        {
            "buffer" : 0,
            "byteLength" : 17976,
            "byteOffset" : 0
        },
        {
            "buffer" : 0,
            "byteLength" : 17976,
            "byteOffset" : 17976
        },
        {
            "buffer" : 0,
            "byteLength" : 11984,
            "byteOffset" : 35952
        },
        {
            "buffer" : 0,
            "byteLength" : 4548,
            "byteOffset" : 47936
        },
        {
            "buffer" : 0,
            "byteLength" : 6696,
            "byteOffset" : 52484
        },
        {
            "buffer" : 0,
            "byteLength" : 6696,
            "byteOffset" : 59180
        },
        {
            "buffer" : 0,
            "byteLength" : 4464,
            "byteOffset" : 65876
        },
        {
            "buffer" : 0,
            "byteLength" : 1932,
            "byteOffset" : 70340
        },
        {
            "buffer" : 0,
            "byteLength" : 768,
            "byteOffset" : 72272
        },
        {
            "buffer" : 0,
            "byteLength" : 768,
            "byteOffset" : 73040
        },
        {
            "buffer" : 0,
            "byteLength" : 512,
            "byteOffset" : 73808
        },
        {
            "buffer" : 0,
            "byteLength" : 192,
            "byteOffset" : 74320
        },
        {
            "buffer" : 0,
            "byteLength" : 480,
            "byteOffset" : 74512
        },
        {
            "buffer" : 0,
            "byteLength" : 480,
            "byteOffset" : 74992
        },
        {
            "buffer" : 0,
            "byteLength" : 320,
            "byteOffset" : 75472
        },
        {
            "buffer" : 0,
            "byteLength" : 120,
            "byteOffset" : 75792
        },
        {
            "buffer" : 0,
            "byteLength" : 864,
            "byteOffset" : 75912
        },
        {
            "buffer" : 0,
            "byteLength" : 864,
            "byteOffset" : 76776
        },
        {
            "buffer" : 0,
            "byteLength" : 576,
            "byteOffset" : 77640
        },
        {
            "buffer" : 0,
            "byteLength" : 216,
            "byteOffset" : 78216
        },
        {
            "buffer" : 0,
            "byteLength" : 3000,
            "byteOffset" : 78432
        },
        {
            "buffer" : 0,
            "byteLength" : 3000,
            "byteOffset" : 81432
        },
        {
            "buffer" : 0,
            "byteLength" : 2000,
            "byteOffset" : 84432
        },
        {
            "buffer" : 0,
            "byteLength" : 792,
            "byteOffset" : 86432
        },
        {
            "buffer" : 0,
            "byteLength" : 18540,
            "byteOffset" : 87224
        },
        {
            "buffer" : 0,
            "byteLength" : 18540,
            "byteOffset" : 105764
        },
        {
            "buffer" : 0,
            "byteLength" : 12360,
            "byteOffset" : 124304
        },
        {
            "buffer" : 0,
            "byteLength" : 11520,
            "byteOffset" : 136664
        },
        {
            "buffer" : 0,
            "byteLength" : 5760,
            "byteOffset" : 148184
        },
        {
            "buffer" : 0,
            "byteLength" : 5760,
            "byteOffset" : 153944
        },
        {
            "buffer" : 0,
            "byteLength" : 3840,
            "byteOffset" : 159704
        },
        {
            "buffer" : 0,
            "byteLength" : 4200,
            "byteOffset" : 163544
        }
    ],
    "buffers" : [
        {
            "byteLength" : 167744,
            "uri" : "data:application/octet-stream;base64,"
        }
    ]
}
